<svg width="48" height="48" viewBox="0 0 48 48" fill="none" xmlns="http://www.w3.org/2000/svg">
<rect width="48" height="48" fill="white"/>
<circle cx="24" cy="38.1515" r="5.27273" fill="white" stroke="#FF4B07" stroke-width="2"/>
<path d="M13.5455 31.8788C13.5455 31.8788 14.7154 28.8332 16.2434 27.4497C18.4618 25.4412 20.5808 24.9969 23.6628 24.9188C26.9934 24.8343 29.3672 25.2714 31.7566 27.4497C33.2795 28.8381 34.4545 31.8788 34.4545 31.8788" stroke="#152C5B" stroke-width="2" stroke-linecap="round"/>
<path d="M6.57576 24.9091C6.57576 24.9091 8.52565 20.6452 11.0723 18.7084C14.7696 15.8964 18.3014 15.2745 23.4379 15.1651C28.9889 15.0469 32.9454 15.6587 36.9277 18.7084C39.4659 20.6521 41.4242 24.9091 41.4242 24.9091" stroke="#152C5B" stroke-width="2" stroke-linecap="round"/>
<path d="M1 16.5455C1 16.5455 3.57386 11.0633 6.93548 8.57308C11.8159 4.95776 16.4778 4.15808 23.2581 4.01743C30.5854 3.86544 35.8079 4.65214 41.0645 8.57308C44.415 11.0722 47 16.5455 47 16.5455" stroke="#152C5B" stroke-width="2" stroke-linecap="round"/>
</svg>
