<svg width="52" height="51" viewBox="0 0 52 51" fill="none" xmlns="http://www.w3.org/2000/svg">
<rect x="4" width="48" height="48" fill="white"/>
<path d="M23.3045 44.8971C22.8306 45.4638 21.5338 45.8862 19.0758 45.2097C16.7594 44.5721 13.9411 43.0705 11.2315 40.8045C8.52177 38.5384 6.54526 36.0303 5.50799 33.8632C4.40731 31.5636 4.59355 30.2126 5.06749 29.6459C5.54144 29.0792 6.83816 28.6569 9.29618 29.3334C11.6126 29.9709 14.4309 31.4725 17.1406 33.7385C19.8502 36.0046 21.8267 38.5127 22.864 40.6798C23.9647 42.9794 23.7785 44.3304 23.3045 44.8971Z" fill="white" stroke="#FF4B07" stroke-width="3"/>
<path d="M27.7276 9.4794L34.7841 21.4463" stroke="#152C5B" stroke-width="3"/>
<path d="M27.7276 9.4794L20.4058 22.571" stroke="#152C5B" stroke-width="3"/>
<path d="M27.0989 8.5549L37.7646 15.0928" stroke="#152C5B" stroke-width="3"/>
<path d="M13 36L17.7719 33.7138L23.0613 28.0664L27.9425 19.3386L28.2158 8.60663M27.9717 9.04301L17.0699 17.2681" stroke="#152C5B" stroke-width="3"/>
</svg>
